<svg width="247" height="226" viewBox="0 0 247 226" fill="none" xmlns="http://www.w3.org/2000/svg">
<g id="Frame 4">
<g id="Group">
<g id="Vector">
<path d="M128.05 69.8292C134.017 67.9377 140.241 66.9834 146.5 67.0002C172.219 67.0002 189.722 82.3752 200.159 95.9299C205.386 102.732 208 106.12 208 116.2C208 126.286 205.386 129.675 200.159 136.471C189.722 150.025 172.219 165.4 146.5 165.4C120.781 165.4 103.278 150.025 92.8413 136.471C87.6138 129.681 85 126.28 85 116.2C85 106.114 87.6138 102.726 92.8413 95.9299C96.0292 91.7645 99.5793 87.8892 103.45 84.3494" stroke="white" stroke-width="9" stroke-linecap="round"/>
<path d="M128.05 69.8292C134.017 67.9377 140.241 66.9834 146.5 67.0002C172.219 67.0002 189.722 82.3752 200.159 95.9299C205.386 102.732 208 106.12 208 116.2C208 126.286 205.386 129.675 200.159 136.471C189.722 150.025 172.219 165.4 146.5 165.4C120.781 165.4 103.278 150.025 92.8413 136.471C87.6138 129.681 85 126.28 85 116.2C85 106.114 87.6138 102.726 92.8413 95.9299C96.0292 91.7645 99.5793 87.8892 103.45 84.3494" stroke="url(#paint0_linear_364_224)" stroke-opacity="0.53" stroke-width="9" stroke-linecap="round"/>
</g>
<g id="Vector_2">
<path d="M164.952 116.2C164.952 121.093 163.008 125.786 159.548 129.246C156.088 132.706 151.395 134.65 146.502 134.65C141.608 134.65 136.916 132.706 133.456 129.246C129.996 125.786 128.052 121.093 128.052 116.2C128.052 111.307 129.996 106.614 133.456 103.154C136.916 99.6938 141.608 97.75 146.502 97.75C151.395 97.75 156.088 99.6938 159.548 103.154C163.008 106.614 164.952 111.307 164.952 116.2Z" stroke="white" stroke-width="9"/>
<path d="M164.952 116.2C164.952 121.093 163.008 125.786 159.548 129.246C156.088 132.706 151.395 134.65 146.502 134.65C141.608 134.65 136.916 132.706 133.456 129.246C129.996 125.786 128.052 121.093 128.052 116.2C128.052 111.307 129.996 106.614 133.456 103.154C136.916 99.6938 141.608 97.75 146.502 97.75C151.395 97.75 156.088 99.6938 159.548 103.154C163.008 106.614 164.952 111.307 164.952 116.2Z" stroke="url(#paint1_linear_364_224)" stroke-opacity="0.53" stroke-width="9"/>
</g>
</g>
</g>
<defs>
<linearGradient id="paint0_linear_364_224" x1="170.033" y1="116.981" x2="119.515" y2="116.981" gradientUnits="userSpaceOnUse">
<stop stop-color="#5100FE"/>
<stop offset="0.443174" stop-color="#F34FD1" stop-opacity="0.97"/>
<stop offset="1" stop-color="#FF0000"/>
</linearGradient>
<linearGradient id="paint1_linear_364_224" x1="153.562" y1="116.493" x2="138.406" y2="116.493" gradientUnits="userSpaceOnUse">
<stop stop-color="#5100FE"/>
<stop offset="0.443174" stop-color="#F34FD1" stop-opacity="0.97"/>
<stop offset="1" stop-color="#FF0000"/>
</linearGradient>
</defs>
</svg>
