<svg width="231" height="210" viewBox="0 0 231 210" fill="none" xmlns="http://www.w3.org/2000/svg">
<g id="Frame 5">
<g id="Vector">
<path d="M178.722 91.6427C179.481 82.6104 182.205 74.3184 187 66.715L168.602 49C162.791 53.8167 156.168 56.486 148.671 56.9559C141.797 57.5542 135.284 56.2975 129.153 53.1774C122.853 56.1936 116.364 57.4586 109.602 56.9559C102.72 56.4062 96.1379 53.8998 90.6331 49.7322L72.1887 67.4417C76.7267 75.1517 79.2539 83.2196 79.7484 91.6427C79.9834 95.5196 78.8359 100.864 76.2541 107.762C75.0825 111.02 74.0587 114.329 73.1859 117.68C72.5411 120.436 72.1395 122.671 72.0029 124.352C71.91 131.704 74.052 138.343 78.4452 144.247C81.8795 148.555 87.5431 153.315 95.4061 158.519C104.007 162.735 110.665 165.47 115.329 166.636L119.197 168.371C120.413 168.929 121.716 169.478 123.074 170.073C126.011 171.767 128.068 173.6 129.153 175.494C130.486 173.442 132.593 171.658 135.391 170.073C137.068 169.381 138.731 168.655 140.379 167.896L143.3 166.639C144.297 166.166 145.6 165.62 147.185 165.016C149.146 164.269 151.117 163.548 153.097 162.855C157.641 161.309 160.949 159.842 163.05 158.519C170.678 153.317 176.255 148.632 179.804 144.449C184.353 138.526 186.566 131.854 186.465 124.357C186.194 120.996 184.716 115.625 182.033 108.306C179.481 101.172 178.353 95.6371 178.722 91.6427Z" fill="white"/>
<path d="M178.722 91.6427C179.481 82.6104 182.205 74.3184 187 66.715L168.602 49C162.791 53.8167 156.168 56.486 148.671 56.9559C141.797 57.5542 135.284 56.2975 129.153 53.1774C122.853 56.1936 116.364 57.4586 109.602 56.9559C102.72 56.4062 96.1379 53.8998 90.6331 49.7322L72.1887 67.4417C76.7267 75.1517 79.2539 83.2196 79.7484 91.6427C79.9834 95.5196 78.8359 100.864 76.2541 107.762C75.0825 111.02 74.0587 114.329 73.1859 117.68C72.5411 120.436 72.1395 122.671 72.0029 124.352C71.91 131.704 74.052 138.343 78.4452 144.247C81.8795 148.555 87.5431 153.315 95.4061 158.519C104.007 162.735 110.665 165.47 115.329 166.636L119.197 168.371C120.413 168.929 121.716 169.478 123.074 170.073C126.011 171.767 128.068 173.6 129.153 175.494C130.486 173.442 132.593 171.658 135.391 170.073C137.068 169.381 138.731 168.655 140.379 167.896L143.3 166.639C144.297 166.166 145.6 165.62 147.185 165.016C149.146 164.269 151.117 163.548 153.097 162.855C157.641 161.309 160.949 159.842 163.05 158.519C170.678 153.317 176.255 148.632 179.804 144.449C184.353 138.526 186.566 131.854 186.465 124.357C186.194 120.996 184.716 115.625 182.033 108.306C179.481 101.172 178.353 95.6371 178.722 91.6427Z" fill="url(#paint0_linear_364_226)" fill-opacity="0.49"/>
</g>
</g>
<defs>
<linearGradient id="paint0_linear_364_226" x1="77.52" y1="68.32" x2="170.44" y2="139.16" gradientUnits="userSpaceOnUse">
<stop offset="0.0807569" stop-color="#C9FF84"/>
<stop offset="0.530635" stop-color="#8FFF00"/>
<stop offset="0.890886" stop-color="#8FFF00"/>
</linearGradient>
</defs>
</svg>
